<?xml version='1.0' encoding='iso-8859-1'?>
<svg version="1.1" xmlns="http://www.w3.org/2000/svg" viewBox="0 0 137.144 137.144" xmlns:xlink="http://www.w3.org/1999/xlink" enable-background="new 0 0 137.144 137.144">
  <g>
    <g>
      <path d="m27.429,48h13.714v-13.714h-13.714v13.714zm0,20.572h13.714v-13.715h-13.714v13.715zm0,20.571h13.714v-13.714h-13.714v13.714zm0,20.572h13.714v-13.714h-13.714v13.714zm27.429,0h54.858v-13.714h-54.858v13.714zm0-61.715h54.858v-13.714h-54.858v13.714zm54.857-48h-82.286c-15.149,0-27.429,12.28-27.429,27.428v82.287c0,15.149 12.28,27.429 27.429,27.429h82.286c15.148,0 27.429-12.28 27.429-27.429v-82.287c0-15.148-12.28-27.428-27.429-27.428zm13.715,102.858c0,11.361-9.21,20.571-20.571,20.571h-68.573c-11.362,0-20.572-9.211-20.572-20.571v-68.572c0-11.361 9.21-20.572 20.572-20.572h68.572c11.361,0 20.571,9.21 20.571,20.572v68.572zm-68.571-13.715h54.858v-13.714h-54.858v13.714zm0-20.571h54.858v-13.715h-54.858v13.715z"/>
    </g>
  </g>
</svg>
